<svg xmlns="http://www.w3.org/2000/svg" width="543.53" height="229.655" viewBox="0 0 543.53 229.655"><defs><style>.a{fill:#0e9adb;}.b{fill:#003282;}</style></defs><g transform="translate(-342.868 -225.788)"><g transform="translate(480.029 370.332)"><path class="a" d="M480.83,383.835h-.256a1.2,1.2,0,0,1-.617-.156c-.31-.309-.31-.514-.361-3.809l.154-11.585-.207-13.8-.153-.052c-.413,0-1.287,1.185-1.494,1.185-.154,0-1.494,1.7-1.9,1.8-.617.412-.617,1.235-1.236,1.235a1.669,1.669,0,0,1-1.7-1.338c0-.67,3.192-3.862,3.45-3.862.156,0,1.133-1.031,1.236-1.031a3.091,3.091,0,0,0,1.8-1.7c-.153-1.9-.256-5.766-.256-7.467l.051-.668a50.2,50.2,0,0,0-.361-5.717l.052-.513c0-.619-.463-2.318-.721-2.318-.1,0-.205.154-.205.309,0,1.133-.154,1.854-.413,2.009-.1,0-.154-.208-.154-.619.258-4.017.619-6.385,1.391-6.848a2.523,2.523,0,0,1,1.185-.258,1.194,1.194,0,0,1,.719.207c.67.566.824,2.727,1.185,16.218.1,3.811.154,4.582.309,4.582.309,0,1.545-.566,2.369-.823.36-.052,6.231-2.834,7.053-3.09l1.752-.566c.411-.1.565-1.7.565-6.9-.1-5.147-.514-3.965-.514-4.788.205-2.42.617-4.377.875-4.48.668-2.264.307-2.42,1.8-2.625.617,0,1.235.361,1.235.876-.258,4.016-.566,8.392-.668,11.79,0,2.008-.052,3.45-.1,5.87l.1,1.185a38.753,38.753,0,0,0-.31,5.663l.051,1.494c0,2.522-.256,2.264-.256,4.942,0,2.935,0,3.553-.051,6.59,0,2.73.256,6.385.719,12.512a17.914,17.914,0,0,1,1.855,3.862c-.1.205-.208.309-.361.309-.36,0-.67-.566-1.082-.566l-.463.1c-.463,0-.876-.358-1.338-1.132-1.082-1.854-1.957-10.659-1.957-19.567,0-4.633.411-11.739.411-12.716-.1-.361-.153-.464-.462-.464-.877,0-11.534,5.15-11.534,5.613,0,5.407,0,2.523.1,8.237,0,2.318-.205,2.523-.205,4.068.1,1.906.205,2.111.412,9.68.154,4.119.309,5.768.463,8.907a1.548,1.548,0,0,1-.1.721.825.825,0,0,1-.413.156C481.861,384.5,481.4,383.835,480.83,383.835Zm.207-33.777c0-1.494-.514-7.415-.619-7.415-.36,0-.565.31-.565,1.442l.051,4.531c0,1.8.052,2.06.36,2.06C480.83,350.676,480.985,350.469,481.037,350.057Zm.051,29.3c0-5.149.051-9.372.207-9.731l.051-2.215c0-4.272-.154-13.181-.258-13.593-.1-.205-.205-.309-.36-.309a.548.548,0,0,0-.464.258c-.205.156-.256.617-.256,2.369l.051,7.774v7.362a4.062,4.062,0,0,0,.1,1.443c.256-.722.361-1.029.515-1.029.051,0,.1.153.1.412,0,.617-.154.977-.361.977-.154,0-.256.051-.256.154l-.1,1.031c0,.412.566.205.566.772a1.12,1.12,0,0,1-.258.721c-.051,0-.1-.1-.1-.36a7.175,7.175,0,0,0-.1,1.389,20.53,20.53,0,0,0,.256,3.709l.259-.259v.154c.256.412.1.566.256.566A5.338,5.338,0,0,0,481.088,379.354Zm-.926-34.292a1.8,1.8,0,0,1,.1-.875h.052c.1,0,.153.258.153.619l-.153.875Q480.238,345.681,480.162,345.063Zm15.7,31.615c-.207-1.752-.464-2.781-.464-3.5-.1-2.213-.205-7.415-.205-10.606l.051-2.574c.051-.566.051-1.391.051-4.275v-.926a5.758,5.758,0,0,1,.1-1.338l.052-1.133c-.1-4.686-.052-5.612-.566-5.612s-.515.051-.515,4.53c0,5.1-.309,7-.309,10.916,0,3.655.156,7.723.361,9.319.154,1.03.361,2.215.361,2.729a5.834,5.834,0,0,0,.977,2.729C495.814,376.934,495.866,376.832,495.866,376.678Zm-.568-32.645c-.153-2.627-.205-4.325-.462-4.325a.4.4,0,0,0-.156.36l-.205,3.913c0,.67.1.98.361.98C495.145,344.806,495.3,344.908,495.3,344.033Z" transform="translate(-473.056 -323.026)"></path><path class="a" d="M497.82,372.406c0-.1-.154-.207-.36-.258-.721-.156-1.7-1.6-2.215-3.346a9.25,9.25,0,0,1-.207-2.42,47.758,47.758,0,0,1,2.523-14.468,6.4,6.4,0,0,0,.412-1.392c0-.1,0-.154-.1-.154-.31,0-1.752,1.287-2.164,1.287h-.051l-.1-.205a4.728,4.728,0,0,1,1.546-2.625c1.544-.721,2.831-.772,3.036-1.031.156-.1.927-.051,1.082-.256.051-.154.67-.259,1.391-.259,1.6,0,2.883.464,2.883.774s-.412.462-1.133.926a4.684,4.684,0,0,1,2.317,3.4,59.859,59.859,0,0,1,.412,6.746c0,5.252-3.449,13.953-7.569,13.953C498.9,373.075,497.82,372.664,497.82,372.406Zm-.719-14.675a8.348,8.348,0,0,0,.256-1.391c0-.258-.1-.36-.205-.36-.361,0-.1.67-.515,1.442a42.543,42.543,0,0,0-1.031,8.649,11.589,11.589,0,0,0,.31,3.192l.309.413C496.431,360.409,496.533,362.52,497.1,357.731Zm4.479,11.636c.926-1.235,1.852-4.531,2.522-6.075.566-.875.877-3.3.877-6.59a10.921,10.921,0,0,0-.361-3.862c-.824-2.267-1.185-2.627-2.008-3.45a6.52,6.52,0,0,0-1.6,1.544,36.059,36.059,0,0,0-2.318,6.59,48.834,48.834,0,0,0-1.235,9.32,9.268,9.268,0,0,0,.875,4.376.638.638,0,0,0,.617.412C499.57,371.633,500.652,370.654,501.58,369.367Zm4.17-15.189c0-.823,0-.977-.258-1.031l-.052.1.052.256a6.09,6.09,0,0,1,.154,1.031v.154C505.7,354.694,505.75,354.488,505.75,354.178Zm0,3.605-.051-.207c-.052,0-.052.051-.052.154v.207h.052Zm.154-1.287.051-.259-.051-.307-.052-.052.052.67Z" transform="translate(-465.533 -315.871)"></path><path class="a" d="M508.628,375.307a51.429,51.429,0,0,1-.772-8.495c0-.619,0-1.031.1-1.082l.1-.205c-.205-.1-.36,0-.36-1.082,0-.926.1-1.184.309-1.184.669,0,.772,11.843,1.03,12a17.58,17.58,0,0,0,.1-2.625c0-4.119-.207-3.862-.412-10.916-.052-2.934-.207-5.3-.258-5.458a17.876,17.876,0,0,0-.258,3.037c0,2.884-.154,3.3-.36,3.5-.1,0-.154-.258-.154-.927-.052-4.272-.156-5.766-.156-10.245,0-6.952.051-6.952.67-7.106h.412a1.465,1.465,0,0,1,1.236.514c.256.463.36,27.29.515,27.445.1,0,.205-.464.411-1.133.721-3.244,1.545-4.326,2.059-6.951.052-.514.207-.824.361-.824.1,0,.051.67.412.67.154,0,.258-.205.258-.464,0-.514-.515-.514-.515-.926.1-1.389.515-1.389.515-1.75,0-.67.361-.926.772-2.368.412-1.752.876-1.957.876-2.523,0-.617.721-1.545,1.028-2.574.516-1.391,2.06-4.016,3.3-4.016h1.185c.256,0,.412.154.668.67.361.772.361,1.44.516,6.641.258,8.239.515,11.636.875,11.636.361-.361.412-1.133,1.185-3.964a44.9,44.9,0,0,0,1.389-6.746c.927-5.973.927-5.973,1.957-7.878.823-1.338.979-1.493,1.8-1.6a5.111,5.111,0,0,0,1.235-.156c.36,0,.67.361,1.082,1.134.463.772.514,1.338.875,5.149.977,11.018.926,18.021,2.574,18.536.1-.156.1-.259.464-.259.411,0,.721.568.721,1.34,0,.617-.1.617-.98.721a2.49,2.49,0,0,1-2.42-1.545,74.8,74.8,0,0,1-1.647-7.825l-.361-2.111a60.056,60.056,0,0,1-.566-6.436c0-.31,0-.154.1-.464a10.154,10.154,0,0,1-.566-3.037,5.348,5.348,0,0,0-.464-2.368c-.617,0-.926,2.008-1.6,4.891l-.1-.619a6.847,6.847,0,0,1,.258-1.749v-.1l-.1-.051c-.259,0-.515.927-.721,2.471-.208,1.957-.98,6.539-1.236,8.188v.1h.051c.1,0,.1.1.1.307a18.418,18.418,0,0,1-.98,4.531,5.156,5.156,0,0,1-1.338,2.009,2.051,2.051,0,0,1-.772.154c-1.34,0-2.369-1.236-2.729-3.244a10.72,10.72,0,0,1-.31-2.215c0-.256,0-.36.054-.36.462.515.411,3.141.926,3.45.1,0,.1-.1.1-.464-.256-5.251-.309-8.753-.566-8.753-.154,0-.1-.668-.36-.668-.156,0-.156,1.287-.31,1.287-.205,0-.205-1.906-.307-4.582-.1-1.082.051-2.42-.259-2.42s-2.676,5.3-2.985,6.9a84.235,84.235,0,0,0-2.318,8.444c-.566,2.627-2.368,8.186-2.368,9.114,0,.463-.617.566-.722.978-.205.309-.256.412-.36.412C509.71,378.654,509.143,377.574,508.628,375.307Zm1.133-10.3-.051-.411c-.051,0-.051.1-.051.36s0,.412.051.412Zm3.347.772c.153-.1.205-.205.205-.256,0-.1-.052-.154-.205-.154-.1,0-.154.154-.154.256l.1.154Zm1.389-4.427c0-.156-.051-.31-.1-.31-.207,0-.361.413-.361.98,0,.256.051.36.1.36C514.292,362.384,514.447,362.024,514.5,361.354Zm.1-.721-.154-.156-.051.156c0,.1.051.205.1.205l.051-.051Zm.927-2.42a9.1,9.1,0,0,0,.36-1.338l-.052-.1c-.205,0-.412.565-.772,1.8a10.214,10.214,0,0,1-.463,1.545c0,.052.051.052.1.052h.052C515.218,359.963,515.064,359.346,515.528,358.213Zm4.323,3.552a1.09,1.09,0,0,1,.052-.307l.051.36-.051.258Zm0,1.442a1.575,1.575,0,0,1,.052-.462l.051.514-.051.463A1.8,1.8,0,0,1,519.852,363.206Zm6.7-.256a5.682,5.682,0,0,1,.514-2.008c-.205,1.389-.309,2.317-.463,2.317C526.547,363.259,526.547,363.155,526.547,362.95Zm.309-8.135a.164.164,0,0,0-.154-.154c-.051,0-.1,0-.1.051v.1l.154.258C526.856,355.072,526.856,354.969,526.856,354.815Zm.205,5.612a22.2,22.2,0,0,1,.721-3.6c-.258,1.906-.412,3.811-.67,3.811A.307.307,0,0,1,527.061,360.427Zm5.356,5.973a33.342,33.342,0,0,1-.516-3.965c-.361-4.067-.412-4.891-.617-4.891-.259.205-.361.1-.361,1.391,0,2.317.617,6.9,1.184,7.774l.205.205C532.365,366.914,532.365,366.761,532.416,366.4Zm.309-3.193c-.205-3.036-.258-4.737-.413-4.737l-.051.259c.156,2.264.361,2.882.361,4.221,0,.361,0,.617.051.617Zm.205,1.341.051-.31a.95.95,0,0,0-.1-.36v.721Z" transform="translate(-461.252 -316.816)"></path><path class="a" d="M532.466,366.714a7.692,7.692,0,0,1-1.287-4.274c0-2.625,2.162-6.848,3.192-7.672.568-.307,2.883-3.5,3.965-4.377a4.174,4.174,0,0,1,2.729-.926c1.854,0,2.574.515,3.244,2.266a2.358,2.358,0,0,1,.156.824c0,1.442-1.031,3.141-3.605,6.59-.1,0-.361.464-.772.875a43.587,43.587,0,0,1-4.223,4.531c-1.185.978-1.6,1.442-1.6,1.8,0,.463.721.874,1.442.874,2.471,0,7.518-3.243,11.945-8.751a10.553,10.553,0,0,1,1.6-1.7l.051.207c0,.979-2.574,3.655-3.039,4.84,0,.154-.051.205-.1.205-.205-.205-.258-.309-.36-.309-.051,0-.1.1-.1.258a1.568,1.568,0,0,0,.207.721c0,.309-.928.773-1.081,1.082-.36,1.029-3.3,2.987-6.127,4.582a5.079,5.079,0,0,1-2.06.309C534.269,368.671,533.187,367.9,532.466,366.714Zm.67-8.444c0-.052-.052-.052-.1-.052-.154,0-.205.052-.205.156a.529.529,0,0,0,.051.205C532.982,358.579,533.084,358.477,533.136,358.27Zm1.544,4.428c3.3-2.781,7.106-7.878,7.621-10.091l.154-.98c0-.772-.36-1.081-1.081-1.081-.98,0-.361.258-2.369,2.06-1.442,1.595-1.493,1.184-3.09,3.758-2.368,3.089-2.883,5.714-2.883,6.8,0,.258.1.412.258.412A5.034,5.034,0,0,0,534.68,362.7Zm12.975-1.854c0-.1.1-.207.31-.309.051,0,.1.1.1.256s-.1.207-.154.207C547.76,361,547.655,360.948,547.655,360.845Zm.617-.67a.732.732,0,0,1,.464-.721l.1.1a1.43,1.43,0,0,1-.258.617l-.258.31C548.272,360.485,548.272,360.381,548.272,360.175Zm.877-1.442a.458.458,0,0,1,.309-.411c.1,0,.1.051.154.205l-.154.256-.258.156C549.149,358.94,549.149,358.888,549.149,358.733Zm.36-2.574c0-.256.051-.36.361-.67l.1.154c0,.361-.258.67-.361.67Z" transform="translate(-453.164 -315.122)"></path><path class="a" d="M557.171,372.406c0-.1-.154-.207-.36-.258-.721-.156-1.7-1.6-2.216-3.346a9.319,9.319,0,0,1-.205-2.42,47.76,47.76,0,0,1,2.523-14.468,6.394,6.394,0,0,0,.412-1.392c0-.1,0-.154-.1-.154-.309,0-1.75,1.287-2.162,1.287h-.051l-.1-.205a4.726,4.726,0,0,1,1.545-2.625c1.545-.721,2.832-.772,3.038-1.031.154-.1.926-.051,1.082-.256.051-.154.67-.259,1.391-.259,1.595,0,2.882.464,2.882.774s-.412.462-1.133.926a4.689,4.689,0,0,1,2.318,3.4,60.551,60.551,0,0,1,.412,6.746c0,5.252-3.451,13.953-7.569,13.953C558.252,373.075,557.171,372.664,557.171,372.406Zm-.721-14.675a8.391,8.391,0,0,0,.258-1.391c0-.258-.1-.36-.207-.36-.36,0-.1.67-.515,1.442a42.673,42.673,0,0,0-1.029,8.649,11.609,11.609,0,0,0,.309,3.192l.31.413C555.781,360.409,555.883,362.52,556.45,357.731Zm4.479,11.636c.927-1.235,1.854-4.531,2.523-6.075.566-.875.875-3.3.875-6.59a10.971,10.971,0,0,0-.36-3.862c-.824-2.267-1.185-2.627-2.008-3.45a6.525,6.525,0,0,0-1.6,1.544,35.959,35.959,0,0,0-2.317,6.59,48.716,48.716,0,0,0-1.235,9.32,9.27,9.27,0,0,0,.874,4.376.64.64,0,0,0,.619.412C558.921,371.633,560,370.654,560.929,369.367Zm4.172-15.189c0-.823,0-.977-.259-1.031l-.051.1.051.256a6.087,6.087,0,0,1,.154,1.031v.154C565.049,354.694,565.1,354.488,565.1,354.178Zm0,3.605-.052-.207c-.052,0-.052.051-.052.154v.207h.052Zm.154-1.287.051-.259-.051-.307-.052-.052.052.67Z" transform="translate(-445.22 -315.871)"></path><path class="a" d="M568.677,402.237c-1.8-2.264-1.6-3.6-2.111-9.165.515,3.039.361,4.428,1.031,5.3.051,0,.051-.1.051-.514-.207-5.459-.412-7.672-.412-14.829,0-3.037.051-4.943.154-6.59,0-.207-.051-.309-.1-.309-.205.051-.307.978-.307,2.727-.052,4.172-.259,7.467-.515,7.621-.052,0-.1-.36-.1-1.081.1-1.133.051-2.935.1-5.459a17.822,17.822,0,0,0-.1-2.161l.1-4.582a19.846,19.846,0,0,0,.256-3.76c.051-2.008,1.031-14.778,1.185-17.2.566-7.774,2.317-9.988,3.09-9.988a1,1,0,0,1,.719,1.03c-.153,2.368-1.133,5.354-1.338,7.415,0,1.184-1.854,17.093-1.854,18.691v.256c0,.154.051.259.1.259a18.222,18.222,0,0,0,2.625-3.039c0-.361,4.789-5.354,6.025-6.334a3.2,3.2,0,0,1,1.442-.668c.051,0,.1,0,.1.051A33.586,33.586,0,0,1,576.4,363c-1.442,1.854-1.544,2.059-4.531,5.715a15.936,15.936,0,0,1-1.028,1.544,12.094,12.094,0,0,0-2.062,3.554.494.494,0,0,0,.361.462c.566.156.926.825,1.442,2.369.773,2.162,1.391,10.452,1.391,17.352-.051,3.965,0,6.024-.772,7.672-.464.926-.464.977-1.236.977l-.463.052C569.14,402.7,568.987,402.547,568.677,402.237Zm-2.317-11.378c0-1.031.051-1.9.051-1.9a5.553,5.553,0,0,1,.207,1.75l.051.875c0,.617-.051.979-.1.979C566.411,392.558,566.36,392.043,566.36,390.859Zm1.236-23.017-.1-1.442a20.239,20.239,0,0,0-.256,3.76,5.96,5.96,0,0,0,.1,1.544C567.545,371.551,567.6,370.006,567.6,367.842Zm2.213,27.5-.205-8.651.051-1.131a1.988,1.988,0,0,0,.051-.721c-.1-3.758-.1-5.355-.566-5.766-.463-.773-.307-1.7-.721-1.957-.463,0-.256,2.78-.36,7.827,0,5.456.258,11.327.719,13.437a4.707,4.707,0,0,0,.515,1.854C569.5,400.229,569.81,397.45,569.81,395.338Zm-.617-15.652a2.576,2.576,0,0,1,.1.823l-.051.1Zm1.389,7a.933.933,0,0,0-.1-.514l.051.566Z" transform="translate(-441.124 -317.59)"></path><path class="a" d="M586.525,385.358c0-.464,0-.67.052-.67.1,0,.258.462.617,1.544,0-5.046-.514-14.621-.514-18.175,0-5.149.258-11.431.258-18.279,0-2.729-.052-5.2-.1-5.2-.258.1-.823,19.2-1.236,19.2l-.051-1.029c0-2.986.464-12.718.464-16.579l-.052-1.34a33.9,33.9,0,0,0-2.781,2.678.769.769,0,0,1-.566.207,1.912,1.912,0,0,1-1.749-1.6c.051-.668,3.243-3.141,5.251-4.684.619-12.924,1.287-16.374,2.42-17.25a3.407,3.407,0,0,1,1.391-.307,1.292,1.292,0,0,1,.67.154c.1.1.154.207.154.566,0,.978-1.957,12.1-1.957,14.983l.051.207c.309,0,2.213-.566,2.935-.566.514,0,.67.1.721.307,0,.361-.721,1.185-1.029,1.185-.361,0-2.729,1.338-2.883,2.264-.207.773-.67,17.714-.67,20.905.1,1.34.1,3.553.1,4.942.1,4.07.823,18.279.926,22.862,0,1.184-.1,1.75-.309,1.75C587.606,393.441,586.68,386.386,586.525,385.358Zm-.977-17.507c.051-2.369.1-3.4.258-3.4a7.31,7.31,0,0,1,.309,2.729c-.051,1.081-.154,1.545-.361,1.545S585.547,368.417,585.547,367.851Zm.258,1.8.051-.464.1-.051c.1,0,.154.154.154.515l-.258,2.264C585.856,370.631,585.805,370.476,585.805,369.653Zm.154,3.036c0-.1,0-.205.052-.205l.1.1c0,.205,0,.361-.1.463C585.959,373.051,585.959,372.9,585.959,372.69Zm1.854-42.426-.1-.773a75.427,75.427,0,0,0-1.081,10.659c0,.361.051.514.154.514h.1C587.4,340.511,587.813,331.448,587.813,330.264Zm-.052,24.56-.205-.1a.277.277,0,0,0-.205.154c0,.154.051.258.205.258C587.659,355.133,587.659,354.979,587.761,354.824Zm-.256,2.934a2.536,2.536,0,0,0,.051-.67l-.051-.1-.1.361.052.513Z" transform="translate(-436.16 -323.879)"></path><path class="a" d="M592.57,379.577a23.2,23.2,0,0,1-.668-5.149c0-.205,0-.31.051-.31,0,.31.463.054.463.927a.687.687,0,0,0,.205.515c.31,0,.413-1.648.413-4.274v-3.656c.1-2.522,0-2.162.154-6.333a14.069,14.069,0,0,1,.824-4.377c-.207,0-.773.875-1.184,3.193l-.052,1.647.1,1.03-.154,3.811.1,1.34c0,1.44-.361,4.582-.361,4.839l.051.463c0,.413-.051.929-.258.929-.514-.156-.668-2.574-.772-5.871,0-1.7.514-2.162.514-3.862l-.154-2.266c0-.721.154-1.8.259-2.729-.207-.154-.361-.31-.361-.361l.361-1.338a4.3,4.3,0,0,0,.36-1.647,27.189,27.189,0,0,1-.207-3.5,79.75,79.75,0,0,1,1.289-12.924c.153-1.131,1.389-6.539,1.8-7.774a30.329,30.329,0,0,1,2.266-5.973,1.632,1.632,0,0,0,.361-.617,3.354,3.354,0,0,1,2.575-1.391c.875,0,1.544.566,1.852.566a1.422,1.422,0,0,1,.67.361c.463.463.463,1.184.566,4.119-.205,5.664-.67,6.126-1.75,10.349a96.8,96.8,0,0,1-3.09,9.319c0,.361-.979,2.318-.979,2.574,0,.154-.926,2.059-1.081,2.678a3.851,3.851,0,0,1-.361,1.184,6.821,6.821,0,0,0-.875,2.627l-.258.153-1.287,4.636c0,2.882-.205,4.118-.205,5.714a7.654,7.654,0,0,0,.258,2.678,13.959,13.959,0,0,0,.824-2.678c.051-.051.36-.824.668-1.6,1.7-4.994,5.612-9.937,7.672-9.937.977,0,.926.36,1.442.36a.783.783,0,0,1,.617.361c.36.617.566,3.14.566,5.921-.051,4.067-.207,5.768-.207,9.01,0,4.17.259,7.055.67,7.776a1.933,1.933,0,0,1,.361.926c0,.205-.1.361-.256.361-1.185,0-2.421-2.215-2.935-5.1a40.973,40.973,0,0,1-.154-4.377c0-2.883.205-4.788.205-10.452,0-2.42-.051-3.192-.205-3.192-.824,0-4.172,4.944-5.3,7.569a46.731,46.731,0,0,0-2.781,8.547,7.813,7.813,0,0,0-.568,2.574l.1.772c0,.412-.617.515-.617.926a29.422,29.422,0,0,1,.772,3.811c0,.258-.051.361-.205.361C593.96,382.511,593.239,381.275,592.57,379.577Zm.98-26.312c0-5.87.463-7.311,1.338-13.283.36-2.935,1.544-6.694,1.544-7.672a15.747,15.747,0,0,0,.464-2.008v-.1a5.29,5.29,0,0,0-1.391,3.3v.1c0,.772-.721,2.523-.978,3.965a11.316,11.316,0,0,0-.67,3.243l-.514,4.737a79.059,79.059,0,0,0-.463,8.6c0,.772.051,1.132.154,1.132C593.29,355.273,593.4,354.552,593.549,353.265Zm.772-2.264a3.7,3.7,0,0,0,.051-.824l-.154-.36c-.1.051-.154.051-.154.307.052.67,0,.98.154.98Zm5.149-13.439a20.251,20.251,0,0,0,1.031-4.274,11.2,11.2,0,0,0,.411-3.758l-.205-3.862a44.223,44.223,0,0,0-3.4,9.01,15.761,15.761,0,0,0-.566,2.419c0,.515-.154.412-.515,2.318l-.361,2.471c-.36,2.059-.823,6.436-.823,7.466,0,.412.051.617.205.617C595.865,349.456,598.7,340.6,599.47,337.562Zm-1.133,8.959-.052-.052a2.682,2.682,0,0,0-.463.875l-.309,1.133A5.692,5.692,0,0,0,598.337,346.522Zm2.522-8.086c0-.513.31-.307.31-.772v-.205c0-.256.36-1.082.36-1.493.361-2.215.205-1.185.515-3.451l-.051-.154a2.872,2.872,0,0,0-.413,1.082v.1c0,.977-.926,3.707-.926,4.325v.1c0,.411-.412,1.236-.824,2.934l-.875,3.09a7.146,7.146,0,0,0-.515,1.8v.153C598.9,345.954,600.706,339.416,600.859,338.436Zm1.442-7.878-.051-1.184-.154,1.133L602.044,332C602.2,331.846,602.3,331.846,602.3,330.558Zm2.164,43.3c-.051-4.84-.051-8.032-.156-8.032a2.5,2.5,0,0,0-.205,1.03c-.154,1.442-.307,1.494-.36,2.059,0,1.8.514,7.93.617,7.93A20.68,20.68,0,0,0,604.464,373.862Z" transform="translate(-432.523 -323.866)"></path><path class="a" d="M607.2,366.714a7.692,7.692,0,0,1-1.287-4.274c0-2.625,2.164-6.848,3.192-7.672.568-.307,2.884-3.5,3.965-4.377a4.177,4.177,0,0,1,2.73-.926c1.854,0,2.574.515,3.244,2.266a2.355,2.355,0,0,1,.154.824c0,1.442-1.031,3.141-3.605,6.59-.1,0-.36.464-.772.875a43.705,43.705,0,0,1-4.221,4.531c-1.185.978-1.6,1.442-1.6,1.8,0,.463.721.874,1.442.874,2.471,0,7.518-3.243,11.946-8.751a10.512,10.512,0,0,1,1.6-1.7l.051.207c0,.979-2.574,3.655-3.038,4.84,0,.154-.051.205-.1.205-.207-.205-.259-.309-.361-.309-.051,0-.1.1-.1.258a1.563,1.563,0,0,0,.205.721c0,.309-.926.773-1.08,1.082-.36,1.029-3.3,2.987-6.127,4.582a5.076,5.076,0,0,1-2.059.309C609,368.671,607.923,367.9,607.2,366.714Zm.67-8.444c0-.052-.052-.052-.1-.052-.154,0-.205.052-.205.156a.53.53,0,0,0,.051.205C607.717,358.579,607.819,358.477,607.871,358.27Zm1.545,4.428c3.3-2.781,7.106-7.878,7.621-10.091l.154-.98c0-.772-.361-1.081-1.082-1.081-.979,0-.36.258-2.369,2.06-1.442,1.595-1.493,1.184-3.089,3.758-2.369,3.089-2.885,5.714-2.885,6.8,0,.258.1.412.259.412A5.055,5.055,0,0,0,609.416,362.7Zm12.975-1.854c0-.1.1-.207.309-.309.051,0,.1.1.1.256s-.1.207-.154.207C622.495,361,622.391,360.948,622.391,360.845Zm.617-.67a.731.731,0,0,1,.463-.721l.1.1a1.43,1.43,0,0,1-.258.617l-.256.31C623.009,360.485,623.009,360.381,623.009,360.175Zm.875-1.442a.457.457,0,0,1,.31-.411c.1,0,.1.051.154.205l-.154.256-.259.156C623.884,358.94,623.884,358.888,623.884,358.733Zm.361-2.574c0-.256.051-.36.36-.67l.1.154c0,.361-.258.67-.36.67Z" transform="translate(-427.586 -315.122)"></path><g transform="translate(339.015 18.324)"><path class="a" d="M725.63,371.087c.463-.36.617-.566.875-.566l.1.051c.309,0,3.3-2.729,3.758-2.729l.052.052c-.207.463-.877.463-.877.824l.051.1a8.954,8.954,0,0,0,2.472-1.7,4.272,4.272,0,0,0,1.338-2.008c0-.052,0-.052-.051-.052-.309,0-2.111,2.574-2.472,2.574a.178.178,0,0,1-.051-.1,13.765,13.765,0,0,1,1.338-1.7,12.481,12.481,0,0,1,1.391-1.854,16.788,16.788,0,0,0,1.9-2.985c0-.051-.051-.051-.154-.051a2.211,2.211,0,0,0-1.235.411c-.309.412-1.906.617-3.347.617-3.4,0-4.169-1.287-4.325-4.272a22.847,22.847,0,0,1,1.184-5.408,14.431,14.431,0,0,1,.826-2.315c.154,0,.462-.825.977-.825.412,0,.361-.566.515-.566.256,0,.205-1.132.36-1.544a.82.82,0,0,0,.156-.412l-.052-.154c-.207,0-1.133,2.266-1.287,2.266v-.051a17.252,17.252,0,0,1,1.442-3.707,23.914,23.914,0,0,0,1.442-2.678c0-.207,2.213-4.016,3.09-4.172.411-.154.205-.411,1.441-.411,1.184,0,1.133.515,1.493.515.1,0,.258.1.258.205,0,.617-.875.205-1.442,1.442-.566.927-1.8,2.42-3.038,4.377a8.379,8.379,0,0,1-1.441,2.42c0,.411-3.192,7.052-3.192,8.186,0,.463-.721,2.832-.721,3.862,0,1.133.462,1.7,1.492,1.7a7.41,7.41,0,0,0,2.317-.566,16.668,16.668,0,0,1,4.428-1.031c1.082,0,.979.876,1.338.876.258,0,.361.256.361.824-.051,1.7-.154,1.493-1.545,3.346-.258.154-1.7,2.471-2.883,3.862a17.387,17.387,0,0,1-3.656,3.244,4.6,4.6,0,0,0-.772.463,4.575,4.575,0,0,1-2.111.721C726.917,372.169,726.349,371.706,725.63,371.087Zm1.956-15.189c.464-.721.566-2.781.826-3.038a15.614,15.614,0,0,0,.977-2.729c0-.1-.256-.154-.36-.154-.463,0-.31.566-.617.823a53.714,53.714,0,0,0-1.7,6.59c0,.205.052.258.1.258C727.07,357.649,727.277,356.465,727.586,355.9Z" transform="translate(-725.63 -337.465)"></path><path class="a" d="M748.767,369.574c-.052-.156-.1-.31-.208-.31-.36,0-1.44-2.471-1.44-5.561,0-1.442.153-2.266.412-2.317.1,0,.154.258.154,1.029l-.052,1.287c0,.824.052,1.082.154,1.082s.1-4.119.412-5c.1-.616.36-3.552.36-4.582l-.051-.36a15.87,15.87,0,0,0-.67,2.729,2.134,2.134,0,0,0-.307.824c-.154,1.7-.154,2.625-.464,2.625h-.051c-.154,0-.36.566-1.287,4.428a9.863,9.863,0,0,1-1.338,2.935c-.154.207-.515.36-1.185.36a1.486,1.486,0,0,1-1.544-.721c-1.442-1.9-2.318-4.942-2.574-8.546,0-2.162-.259-3.141-.414-5.51v-4.016c0-4.067.1-5.457.721-7.209.208-.874.413-1.184.774-1.338a3.591,3.591,0,0,1,1.389-.205c.721,0,.721.36,1.131.36a.41.41,0,0,1,.464.361,2.494,2.494,0,0,1-1.029,1.6c-.515.258-.617.514-1.133,3.862-.155,1.133-.258,4.686-.258,7.62,0,3.76.361,4.377.361,5.819a11.492,11.492,0,0,0,1.544,6.024c1.287-2.625,2.113-4.942,4.172-13.232,1.493-5.973,1.544-4.119,1.957-8.084a12.868,12.868,0,0,1,.823-4.17c.051-.205.926-.412,1.442-.412.824,0,.876.979.876,2.111-.1,1.338-.927,4.788-1.7,10.915a65.135,65.135,0,0,0-.926,9.217,24.869,24.869,0,0,0,.412,5.56c.361,1.185,1.029,2.421,1.287,2.421a.135.135,0,0,1,.153.153c0,.1-.051.154-.205.154A3.074,3.074,0,0,1,748.767,369.574Zm-2.318-11.793c0-.205-.051-.256-.1-.256-.153,0-.412.464-.514,1.082l-.207,1.132A4.02,4.02,0,0,0,746.449,357.781Zm1.184-4.839v-.154a36.916,36.916,0,0,0-1.184,4.221c0,.052,0,.1.051.1C746.81,357.112,747.632,353.868,747.632,352.942Zm.361-1.442c0-.258-.1-.412-.156-.412a1.81,1.81,0,0,0-.153.617l.1.309h.051C747.89,352.014,747.994,351.706,747.994,351.5Zm.978.309-.052-.309c-.205.1-.205.721-.307,2.523l.051.309A8.324,8.324,0,0,0,748.972,351.809Z" transform="translate(-721.166 -336.363)"></path><path class="a" d="M753.053,367.185c-.515-2.008-.515-2.008-.67-7.362l-.052-7c0-7.672.31-11.276,1.082-12.153.31-.411.205-.721.875-.721.722,0,1.6.67,1.6,1.031a7.975,7.975,0,0,0-.617,2.883c-.67,5.973-.566,10.04-.721,10.247a49.294,49.294,0,0,0-.361,7.415l.051,1.75.052.721c.722-1.6.722-1.957,1.545-3.707.309-.412,1.029-3.038,1.236-3.038.051,0,.1.154.1.412s-.514,1.131-.514,1.544c0,.464-.824,1.957-.824,2.574,0,.1.051.207.1.207.205,0,1.75-4.429,2.059-4.891.566-1.752,2.986-7.518,3.5-7.982a2.639,2.639,0,0,0,.67-1.132c0-.051,0-.051-.052-.051-.361,0-2.06,2.47-2.06,3.036,0,.156-.411.156-.514.927-.154.309-.309.67-.412.67-.051,0-.1-.051-.1-.154a22.289,22.289,0,0,1,2.575-4.738c1.287-1.7,2.161-2.11,3.088-2.213a2.411,2.411,0,0,1,2.317,1.082c.258.36.31.514.31,1.545-.156,6.487-.156,7.723-.671,8.186a.883.883,0,0,1-.616.309c-1.031-.1-1.082-.361-1.082-4.377,0-3.346-.1-4.684-.412-4.684-1.391,0-3.45,3.037-3.45,3.3l-.516,1.133a56.563,56.563,0,0,0-4.891,14.622c-.361,1.235-.1,2.215-.617,2.678-.566.309-.464.875-.617.875C754.185,370.121,753.723,369.708,753.053,367.185Zm.462-10.35c0-.823-.051-1.338-.153-1.338s-.258.566-.258,2.267a7.147,7.147,0,0,0,.1,1.9l.1.1C753.464,359.772,753.464,358.9,753.515,356.835Zm.052-1.852v-.207c-.1,0-.154.154-.309.464,0,.051.051.1.154.1S753.567,355.188,753.567,354.983Zm4.119,1.03v-.205a7.917,7.917,0,0,1,.721-1.494v.052c-.207.977-.412,1.6-.668,1.647Z" transform="translate(-716.492 -336.704)"></path><path class="a" d="M768.844,397.516c-1.8-2.266-1.6-3.605-2.111-9.165.515,3.038.361,4.427,1.031,5.3.051,0,.051-.1.051-.515-.207-5.458-.412-7.672-.412-14.829,0-3.036.051-4.942.154-6.59,0-.205-.051-.307-.1-.307-.205.051-.307.977-.307,2.727-.052,4.17-.259,7.466-.515,7.621-.051,0-.1-.361-.1-1.082.1-1.133.052-2.935.1-5.459a17.572,17.572,0,0,0-.1-2.161l.1-4.582a19.834,19.834,0,0,0,.256-3.76c.051-2.008,1.031-14.778,1.185-17.2.566-7.774,2.317-9.989,3.09-9.989a1,1,0,0,1,.719,1.029c-.153,2.369-1.133,5.354-1.338,7.415,0,1.184-1.854,17.095-1.854,18.691v.258c0,.154.051.258.1.258a18.173,18.173,0,0,0,2.625-3.039c0-.36,4.789-5.354,6.025-6.333a3.189,3.189,0,0,1,1.442-.67c.051,0,.1,0,.1.052a33.581,33.581,0,0,1-2.42,3.089c-1.442,1.854-1.544,2.06-4.531,5.715a15.744,15.744,0,0,1-1.028,1.545,12.078,12.078,0,0,0-2.062,3.553.5.5,0,0,0,.361.463c.568.154.926.824,1.441,2.368.772,2.164,1.391,10.452,1.391,17.353-.051,3.965,0,6.024-.772,7.672-.464.926-.464.977-1.236.977l-.463.052C769.307,397.979,769.154,397.824,768.844,397.516Zm-2.317-11.38c0-1.029.052-1.9.052-1.9a5.626,5.626,0,0,1,.205,1.75l.051.875c0,.617-.051.979-.1.979C766.579,387.836,766.527,387.32,766.527,386.136Zm1.236-23.015-.1-1.442a20.223,20.223,0,0,0-.256,3.758,5.961,5.961,0,0,0,.1,1.545C767.712,366.828,767.763,365.283,767.763,363.121Zm2.213,27.494-.205-8.649.051-1.133a1.936,1.936,0,0,0,.052-.721c-.1-3.758-.1-5.354-.568-5.766-.463-.773-.307-1.7-.721-1.957-.463,0-.256,2.78-.361,7.827,0,5.458.259,11.328.721,13.438a4.719,4.719,0,0,0,.515,1.854C769.668,395.508,769.977,392.727,769.977,390.615Zm-.617-15.652a2.579,2.579,0,0,1,.1.823l-.051.1Zm1.389,7a.938.938,0,0,0-.1-.515l.051.566Z" transform="translate(-711.633 -337.531)"></path></g><g transform="translate(188.031 10.79)"><g transform="translate(64.374 2.69)"><path class="a" d="M672.987,380.722a3.511,3.511,0,0,1-1.572-.491,9.811,9.811,0,0,1-4.96-5.255v-.048a7.624,7.624,0,0,0-.589-1.178c-.589-.933-1.13-2.652-1.866-3.487-.787-1.129-2.161-5.353-2.9-6.581,0,0,.442-.736.785-.736.148,0,.246.048.3.246a2.142,2.142,0,0,0,1.081.933c0,.048.638.687.835,1.031a2.2,2.2,0,0,1,.344.737c0,.146.54,1.081,1.326,2.6a2.188,2.188,0,0,0,.442.835l1.374,2.946a8.926,8.926,0,0,1,.589,1.081c.393.982,1.032,1.817,1.326,2.651l1.817,2.063c.148,0,1.472,1.179,2.405,1.179.983,0,2.408-1.424,2.85-2.111.834-.639,2.848-5.353,2.848-13.946,0-4.961-.933-13.014-1.915-15.617-.442-.835-1.424-4.076-1.719-4.812a23.835,23.835,0,0,0-3.29-5.255c-.246-.393-.835-.983-1.081-1.424a2.028,2.028,0,0,0-1.768-.785c-.344,0-.541.146-1.129.736a4.96,4.96,0,0,0-1.621,2.161c-.491.737-.589.884-.687.933a1.591,1.591,0,0,1-1.081-1.081,5.324,5.324,0,0,1,2.9-3.584,8.577,8.577,0,0,1,3-.541,2.271,2.271,0,0,1,1.914.835c.737.737,1.621.491,2.6,2.013.3.639,1.178,1.474,1.326,1.965a27.659,27.659,0,0,1,2.5,6.334c.687,2.407,2.455,6.286,2.455,16.7C681.826,373.847,678.438,379.985,672.987,380.722Zm5.205-4.027a11.809,11.809,0,0,0,1.424-2.554c1.129-2.75,1.718-6.286,1.718-11.639-.1-5.353-.785-12.669-1.816-14.83a2.881,2.881,0,0,1-.2-.883c0-.491-2.062-5.942-2.5-5.942-.1,0-.148.1-.148.344,0,.983,3.142,9.282,3.142,12.228a34.059,34.059,0,0,1,.541,6.923c0,5.7-.344,11.59-1.817,15.273A3.839,3.839,0,0,0,678.192,376.7Zm-11.737-4.027.048-.1c-.1-.491-.246-.836-.442-.836l-.1.2C666.162,372.471,666.308,372.669,666.456,372.669Zm-1.572-3.781.1.048c.1,0,.1-.1.1-.2,0-.442-1.472-2.9-1.472-3.192l-.3-.639c-.048-.1-.146-.148-.146-.3-.05.05-.05.148-.1.148-.246,0-.491-.2-.589-.2l-.148.048a25.051,25.051,0,0,0,1.13,2.407c.148,0,.787,1.719.933,1.719S664.638,368.838,664.884,368.887Z" transform="translate(-661.103 -333.922)"></path><path class="a" d="M675.4,360.358c0-.148.2-.294.442-.294l.393.048c.148,0,.2-.048.2-.148,0-.146-.344-.246-1.081-.638a2.828,2.828,0,0,0-1.031-.393,36.22,36.22,0,0,0-3.978-1.424c-.638-.148-.981-.442-1.572-.589a.814.814,0,0,1-.395-.278,3.179,3.179,0,0,1-.9-.427c-.189-.048-.376-.1-.558-.165a3.864,3.864,0,0,1-.723-.349.24.24,0,0,1-.175.089c-.246,0-1.62-.589-3.683-1.079-.639.638-.982.834-.982,1.57,0,1.326,1.032,1.276,2.7,1.817l2.113.639v.113l.017.007a4.178,4.178,0,0,1,.617.062,15.69,15.69,0,0,1,2.259.541c1.378.177,4.215,1.038,7.369,1.783.1,0,.148-.05.148-.1C676.583,360.751,675.5,360.7,675.4,360.358Zm-2.211-.589a4.58,4.58,0,0,1-2.258-.491l-.1-.148A12.892,12.892,0,0,1,673.194,359.769Zm1.621.442c0,.05,0,.05-.1.05a1.1,1.1,0,0,1-.541-.246l.2-.05A.418.418,0,0,1,674.815,360.21Z" transform="translate(-661.016 -326.807)"></path></g><path class="a" d="M713.551,380.545c-.36,0-.585-.136-.585-.494,0-.405.405-1.4.405-1.757l-.044-.18a81.235,81.235,0,0,0,.45-8.6c-.136-5.628.09-7.879-.36-7.879-.09,0-.271.136-.585.451-1.442,1.62-1.981,2.025-2.927,3.152-.675.811-1.306,1.169-1.576,1.664-.405.405-2.475,2.478-4.007,3.872-.314.405-.811.315-.811.54-.089.361-2.835,2.431-4.726,3.782-.991.946-5.988,3.511-7.249,3.511-.45,0-.584-.134-.628-.405,0-.36,1.169-.27,2.205-.809.5-.27.675-.046,1.079-.675l-.45.089c-.134,0-.18-.044-.18-.136,0-.45.405-.584,1.352-1.395.584-.54.719-.405.9-.721.27-.36.631-.27,1.4-.945,6.393-5.492,4.952-4.186,6.437-5.9.225-.225.451-.45.587-.45s.134-.181.63-.721a46.57,46.57,0,0,0,3.6-4.007c.9-.9,2.115-2.387,4.593-5.131.134-.091.179-.225.179-.5-.134-1.35-.629-2.656-1.081-2.656a27.827,27.827,0,0,1-3.557-3.466c-.854-1.08-2.431-2.431-2.97-3.152l-2.746-3.2c-1.44-1.352-5.177-6.483-5.177-8.374a8.552,8.552,0,0,1,.36-2.115l.856-.721v.046a1.987,1.987,0,0,1,1.576-.451,12.838,12.838,0,0,1,4.5,1.126c.631.27.992.18.992.54,0,.09-.091.136-.181.136l-.36-.091c.315.271.45.451.675.451a.193.193,0,0,0,.18-.18v-.09c0-.136,0-.225.046-.225l.405.225c.405.405,2.07.63,2.07,1.081l-.09.224c0,.136.405.405.5.405.136,0,.136-.27.361-.27.136,0,.18.046.18.134v.181a.415.415,0,0,0,.405.45l.585-.225c.224,0,.811.721.945.721.541,0,6.123,3.872,6.347,3.872,5.674,4.456,5.988,4.637,6.393,6.393,0,.224-.135.36-.5.719-.541.631-.765.811-.946.811-.314-.136-.54-.136-.54-.855,0-.766-1.44-1.847-1.44-1.981,0-.225-1.891-1.8-6.978-5.492,1.576,8.824,1.711,11.21,1.937,13.01.314,2.071,1.53.991,2.025,3.062.226,1.621,1.711,3.016,1.711,4.052v.09c-.225,0-1.891-3.377-2.387-3.557-.091,0-.27.18-.315.631,0,.36.63.945,1.352,1.936.54.765.854.855,1.034,1.35,0,.451.451.675.451.945a.347.347,0,0,1-.315.361c-.675,0-2.385-3.062-2.836-3.062a.12.12,0,0,0-.136.136,5.512,5.512,0,0,0-.179,1.44c0,1.036.134,1.666.27,3.781,0,.811-.317.945-.317,1.532l.135,2.025c0,1.081-.18,1.891-.18,2.792l.044.675c0,.584-.089.9-.27.9s-.27-.317-.27-1.262l.136-5.313a6.544,6.544,0,0,1,.4-2.475c0-.181,0-.361-.089-.405-.315-.315-.5-3.962-.856-3.962-.27.136-.36.136-.36,1.126.226,4.456.136,2.431.226,6.843a110.073,110.073,0,0,1-.811,11.21l.046.314.136.046c.179,0,.45-.18.45-.36.18-1.8.134-3.827.45-5.223.09-.225.226-.36.315-.36.136.044.224.27.224.54a20.128,20.128,0,0,0-.314,2.3v1.4c-.226,1.484-.27,2.611-1.486,3.015A2.714,2.714,0,0,1,713.551,380.545Zm-19.268-4.051c.18,0,.45-.18.45-.271l-.044-.09-.271.181-.134.134Zm18.008-25.527c.136,0,.09-.18.136-.405,0-1.756-.9-7.562-.9-8.329,0-.27.046-.361.09-.361a.7.7,0,0,0,.225-.584c.044-.451.224-.721.45-.721.18,0,.45.27.719.27.136,0,.271-.09.271-.18-.136-.54-4.412-3.106-7.743-4.637-1.35-.585-1.486-.9-1.936-.9-.5,0-2.025-.856-3.692-.856-.18.046-.314.091-.314.315a6.83,6.83,0,0,0,1.44,3.286c1.576,2.342,2.251,3.423,2.611,3.423.136,0,1.036,1.53,1.306,1.53.27.54-.314.09,1.666,2.251l3.872,4.188C711.615,350.382,712.021,350.967,712.29,350.967Zm-11.66,20.845c.136,0,.5-.451.5-.541-.36.09-.585.136-.585.36C700.585,371.721,700.585,371.812,700.63,371.812Zm12.021-18.5c.044,0,.089-.044.089-.18l-.134-.675c-.585-1.756-1.666-2.115-3.737-4.412-2.927-3.016-2.972-2.972-4.322-4.592a32.39,32.39,0,0,1-2.926-3.557c-.27-.405-.54-.721-.675-.721a10.031,10.031,0,0,0,1.215,2.025c.091.091.225.225.225.271a6.634,6.634,0,0,1,1.08,1.666,6.43,6.43,0,0,0,1.666,2.522c.134,0,.451.314.765.719C706.978,347.771,712.334,353.308,712.651,353.308Zm-5.4-17.873.046-.044a1.434,1.434,0,0,0-.539-.405C706.933,335.345,707.113,335.435,707.247,335.435Zm7.925,18.5.044-.181a27.128,27.128,0,0,0-1.035-5.087c-.046,0-.09.091-.09.361l.315,3.106C714.632,353.939,714.991,353.939,715.172,353.939Zm-.136,1.306c.09,0,.136-.046.136-.181-.046-.45-.315-.855-.587-.855l-.089.044C714.5,354.388,714.811,355.245,715.036,355.245Zm1.081,4.726.135-.27c0-.136-.09-.226-.135-.226-.18.09-.09.046-.18.181C716.027,359.881,715.937,359.791,716.117,359.971Z" transform="translate(-586.529 -331.608)"></path><path class="a" d="M686.823,381.408l-.721-.181c.09-1.62.271-2.07.271-2.745,0-.405-.136-.5-.451-.631-.54-.134-.855-.405-1.44-.54a33.492,33.492,0,0,1-3.647-1.306,2.575,2.575,0,0,1-.945-.361c-.675-.358-.991-.45-.991-.584,0-.091.046-.136.18-.136l.36.044c.225,0,.405-.134.405-.27-.09-.314-1.081-.36-1.081-.719,0-.046.046-.091.136-.091,3.242.766,6.122,1.667,7.158,1.667h.134c.271,0,.405-.091.405-.361l-.18-7.608c0-1.35.046-1.711.225-1.981a5.9,5.9,0,0,0,.27-1.711c0-.719-.5-.765-.5-2.205l.046-.315c0-.811-.541-17.963-.675-20.348-.136-3.107-.405-2.612-1.577-3.017-1.259-.225-1.846-.9-2.521-.9a6.559,6.559,0,0,1-2.79-1.035c0-.405.721-1.035,1.621-1.035,2.161,0,4.007.629,8.057,1.891a1.7,1.7,0,0,0,.811.314l1.306.315c1.62.45,3.827,2.071,3.827,2.521a.465.465,0,0,1-.226.315c-.405.405-.27.9-.945.9-1.126,0-4.412-1.71-4.907-1.71h-.451c.225,2.025.18,2.16.315,36.6l1.936.585c1.531.5,2.476.45,2.476,1.666,0,.675-.315.856-.9,1.44-1.891-.45-3.15-.989-3.376-.989-.361,0-.361.764-.766,2.205a.509.509,0,0,1-.54.315Zm-6.032-6.347.18-.046a1.015,1.015,0,0,0-.5-.225c-.09,0-.09,0-.09.046C680.43,374.97,680.565,375.061,680.791,375.061Zm3.242.765-.091-.136a4.221,4.221,0,0,0-2.07-.451A11.7,11.7,0,0,0,684.032,375.826Zm2.835-3.693h.046c.09,0,.135-.044.135-.179a.206.206,0,0,0-.181-.225.119.119,0,0,0-.134.134A.321.321,0,0,0,686.867,372.133Zm.722,3.828c.134,0,.27-.541.314-1.757l.044-5.177c0-14-.044-20.62-.314-21.475-.18.315-.315.63-.315,8.284l.135,12.29a13.208,13.208,0,0,1-.09,2.3c-.315,0-.361-.811-.585-3.152v2.115c0,1.442,0,1.891.089,1.891.226-.224.271-.36.361-.36.136,0,.18.314.18,1.036l-.135,3.15.091.631A.213.213,0,0,0,687.589,375.962Zm-.225,3.556c.09,0,.179-.18.179-.315,0-.18-.089-.314-.179-.314s-.18.134-.18.314C687.184,379.337,687.273,379.517,687.364,379.517Z" transform="translate(-590.685 -330.85)"></path><path class="a" d="M657.61,382.746a.73.73,0,0,1-.361-.134,1.367,1.367,0,0,1-.089-.631c.134-2.746.27-4.188.405-7.789.178-6.617.27-6.8.358-8.463,0-1.35-.18-1.531-.18-3.557.091-5,.091-2.476.091-7.2,0-.405-9.32-4.907-10.086-4.907-.27,0-.314.09-.405.405,0,.856.361,7.068.361,11.12,0,7.788-.767,15.487-1.711,17.107-.405.675-.765.992-1.17.992l-.405-.091c-.361,0-.631.5-.945.5-.136,0-.226-.09-.315-.27a15.7,15.7,0,0,1,1.622-3.377c.4-5.357.629-8.554.629-10.939-.046-2.656-.046-3.2-.046-5.762,0-2.342-.224-2.117-.224-4.322l.044-1.306a34.034,34.034,0,0,0-.27-4.952l.09-1.036c-.046-2.115-.09-3.376-.09-5.133-.09-2.97-.36-6.8-.585-10.308,0-.45.54-.766,1.08-.766,1.3.181.991.317,1.576,2.3.226.09.585,1.8.765,3.917,0,.719-.361-.315-.45,4.186,0,4.547.135,5.943.494,6.033l1.532.5c.719.225,5.854,2.656,6.168,2.7.721.225,1.8.721,2.072.721.134,0,.178-.675.27-4.007.314-11.8.45-13.687,1.034-14.182a1.056,1.056,0,0,1,.631-.18,2.2,2.2,0,0,1,1.036.226c.675.405.989,2.475,1.215,5.988,0,.36-.044.541-.134.541-.225-.136-.361-.766-.361-1.756,0-.136-.089-.271-.18-.271-.226,0-.63,1.486-.63,2.027l.046.45a43.485,43.485,0,0,0-.317,5l.046.585c0,1.485-.09,4.862-.225,6.527a2.7,2.7,0,0,0,1.577,1.486c.089,0,.945.9,1.079.9.225,0,3.016,2.792,3.016,3.376a1.459,1.459,0,0,1-1.486,1.172c-.54,0-.54-.721-1.08-1.08-.36-.091-1.529-1.576-1.664-1.576-.181,0-.945-1.036-1.306-1.036L660,356.5l-.18,12.064.136,10.13c-.046,2.882-.046,3.062-.315,3.331a1.063,1.063,0,0,1-.541.136h-.226C658.375,382.161,657.97,382.746,657.61,382.746Zm-11.8-6.617a5.1,5.1,0,0,0,.855-2.387c0-.45.18-1.486.315-2.387.18-1.395.316-4.952.316-8.149,0-3.421-.27-5.087-.27-9.545,0-3.915,0-3.961-.451-3.961s-.405.811-.5,4.907l.046.991a5.062,5.062,0,0,1,.09,1.17v.811c0,2.521,0,3.242.044,3.737l.044,2.251c0,2.792-.089,7.338-.178,9.274,0,.631-.226,1.531-.405,3.062C645.724,376.037,645.769,376.129,645.814,376.129Zm.811-27.959c.224,0,.314-.27.314-.854l-.178-3.423a.353.353,0,0,0-.135-.314c-.226,0-.27,1.485-.405,3.781C646.22,348.126,646.355,348.036,646.625,348.17Zm12.155,31.469c.136,0,0-.134.224-.494v-.136l.226.226a17.82,17.82,0,0,0,.225-3.242,6.367,6.367,0,0,0-.09-1.215c0,.224-.046.314-.091.314a.984.984,0,0,1-.224-.631c0-.494.5-.314.5-.675l-.09-.9c0-.09-.09-.136-.225-.136-.18,0-.314-.315-.314-.855,0-.225.044-.361.089-.361.136,0,.226.271.451.9a3.562,3.562,0,0,0,.09-1.26v-6.437l.046-6.8c0-1.53-.046-1.935-.226-2.071a.479.479,0,0,0-.405-.225c-.136,0-.226.091-.316.27-.09.361-.226,8.149-.226,11.885l.046,1.937c.134.314.18,4.007.18,8.508A4.61,4.61,0,0,0,658.78,379.639Zm.585-26.47c.27,0,.315-.225.315-1.8l.044-3.962c0-.989-.18-1.26-.5-1.26-.09,0-.54,5.178-.54,6.484C658.735,352.987,658.869,353.168,659.366,353.168Zm-.046-4.368-.134-.765c0-.315.044-.541.134-.541h.046a1.568,1.568,0,0,1,.09.766C659.41,348.621,659.366,348.8,659.32,348.8Z" transform="translate(-602.871 -331.918)"></path><path class="a" d="M634.84,381.158c-.27,0-.45-.27-1.033-.855l.314-.5c.811-1.4.855-2.521.9-33.224,0-5.223-.09-4.907-1.62-5.268a18.681,18.681,0,0,1-1.937-.584c-1.125-.587-1.711-.361-3.016-.811-2.385-.9-4.322-1.081-6.3-1.756a22.6,22.6,0,0,0-3.331-.765c-.135,0-.18.044-.18.09l.09.314c0,.136-.09.18-.27.18-.315,0-.811.721-1.035.721-.27,0-.9-.855-1.531-.991a5.283,5.283,0,0,1-2.745-1.62c0-.225.675-.9.675-1.26v-.09c0-.451.945-1.081,1.62-1.081a19.494,19.494,0,0,1,4.592,1.17,3.174,3.174,0,0,0,2.071.54l1.26-.046c.721,0,1.035.766,1.306.766a10.986,10.986,0,0,0,2.385.719c1.125.136,1.621.631,2.251.631.45,0,.45-.27.675-.27,1.216.315,1.756.675,2.161.675.225,0,1.036.855,1.35.855h.047a16,16,0,0,0,1.89.315l.405-.044a3.459,3.459,0,0,1,.855.224,12.992,12.992,0,0,1,2.115.721c1.126.719,1.847.45,3.106,1.081a8.578,8.578,0,0,1,2.612,1.215c3.423,1.937,4.456,2.161,4.456,3.287,0,.541-.314.675-.314,1.17,0,.36-.855,1.26-1.26,1.26a1.539,1.539,0,0,1-.631-.361c-.405-.4-1.035-.4-1.531-.809-.675-.675-3.284-1.711-3.284-1.891,0-.27-.766-.18-1.036-.45a8.158,8.158,0,0,0-2.386-1.035c-.226,0-.314.178-.314,1.17v1.081c0,.45-.047.809-.136.809-.405,0-.315,2.746-.54,30.974-.136,2.476-.181,3.017-.856,3.017l-.765-.091C635.291,380.347,635.111,381.158,634.84,381.158Zm-.044-40.832c.27,0,.5-.046.5-.181,0-.18-1.035-.675-1.44-.675-.361,0-8.059-2.205-9.994-2.7a17.605,17.605,0,0,1-1.8-.45c-1.53-.405-1.98-.451-3.691-.856a3.121,3.121,0,0,0-1.262-.135l-.719.091c0,.134,2.7.629,4.051,1.125,2.117.721-.764-.315,7.565,1.936,1.26.271,2.3.766,3.286.9C632.41,339.559,633.49,340.326,634.8,340.326Zm2.072,37.591.134-.18c.135-.136.36-16.162.36-21.429-.09-3.6.046-5.9-.315-5.9a8.17,8.17,0,0,0-.179,2.3c-.091,0-.407-3.287-.541-3.287-.271,23.14-.181,26.426-.361,27.868,0,.225.09.27.18.27.541-.044.361-2.3.587-2.3.135,0,.18.225.18.721l-.091,1.62C636.821,377.827,636.821,377.917,636.868,377.917Zm-.047-4.1c-.044,0-.089-.136-.089-.405.044-.585.044-1.036.135-1.036a2.818,2.818,0,0,1,.089.675A1.366,1.366,0,0,1,636.821,373.82Zm0-14.045-.044-.722.044-.719c.047,0,.047.27.047.719S636.868,359.775,636.821,359.775Zm.047,1.62-.047-.046-.044-.134.091-.315Zm0,10.174-.047-.044-.044-.225.091-.271Zm2.34-29.893c.091,0,.18,0,.18-.044,0-.136-.54-.361-.811-.361l-.18.136C638.489,341.585,638.8,341.676,639.208,341.676Z" transform="translate(-613.143 -331.321)"></path></g></g><g transform="translate(342.868 225.788)"><path class="b" d="M433.951,221.441a63.083,63.083,0,1,0,63.084,63.084A63.155,63.155,0,0,0,433.951,221.441Zm-16.91,108.767c-5.424,0-10.88-1.852-16.217-5.509l-.138-.1a51.846,51.846,0,0,1-18.391-33.426l-.926-7.282.952,1.318a86.136,86.136,0,0,0,9.071,13.547c12.28,14.939,28.078,22.8,46.1,23.05a29.015,29.015,0,0,1-20.442,8.405Zm-6.262-24.483a39.785,39.785,0,0,0,32.237-8.133l2.768-2.227.271,3.542c.056.74.085,1.493.085,2.238a28.848,28.848,0,0,1-2.8,12.435C431.187,314.619,420.295,311.986,410.78,305.726Zm60.449,15.169-.023.024a52.238,52.238,0,0,1-30.259,15.221l-.1.015-7.217.91,5.882-4.279a40.074,40.074,0,0,0,6.4-59.061L443.4,270.9l3.764-.29a29.929,29.929,0,0,1,24.068,50.28ZM449.486,262.21c-.917,0-1.842.031-2.752.091a42.219,42.219,0,0,0-24.9,10.182,29.113,29.113,0,0,1,19.577,12.773l.766,1.172-.907,1.064a29.727,29.727,0,0,1-47.6-35.408h81.008a52.042,52.042,0,0,1,10.653,23.876l1.126,6.8-4.409-5.294A42.26,42.26,0,0,0,449.486,262.21Z" transform="translate(-370.868 -214.394)"></path><g transform="translate(141.959 0)"><path class="b" d="M500.552,289.186c-14.429,0-22.213-5.506-22.213-14.9v-6.456h.474c4.082,4.176,12.625,6.644,20.126,6.644,8.354,0,11.012-1.993,11.012-6.36,0-3.988-3.607-5.317-13.575-7.309-14.238-2.85-19.744-8.07-19.744-18.038,0-11.675,10.632-22.117,27.245-22.117,16.138,0,22.308,7.31,22.308,14.049v6.929h-.474c-4.368-4.365-12.247-6.264-19.081-6.264-8.925,0-11.961,2.373-11.961,6.076,0,2.942,1.234,4.556,13.383,7.024,13.48,2.753,19.936,8.259,19.936,18.417C527.988,280.452,518.02,289.186,500.552,289.186Z" transform="translate(-476.631 -214.666)"></path><path class="b" d="M547.359,285.41c-16.9,0-26.105-8.259-26.105-24.967V231.68h7.025c7.879,0,11.3,2.658,11.3,10.632v18.606c0,7.688,3.607,10.063,8.543,10.063,4.272,0,7.688-2.468,7.688-10.727V231.68h7.027c7.214,0,11.2,3.036,11.2,10.632v18.606C574.036,277.625,563.4,285.41,547.359,285.41Z" transform="translate(-461.359 -210.89)"></path><path class="b" d="M599.893,245.6a16.284,16.284,0,0,0-6.361-1.046c-4.366,0-7.784,2.184-7.784,8.545v31.231h-4.935c-7.785,0-12.531-3.607-12.531-12.341V249.3c0-10.537,7.119-18.892,18.985-18.892,9.02,0,13.2,3.7,13.2,8.545V245.6Z" transform="translate(-445.264 -211.326)"></path><path class="b" d="M629.131,231.584c-1.993-1.044-5.7-1.424-8.068-1.424-4.272,0-7.215,2.468-7.215,5.6v6.17h11.961v6.55c0,3.513-3.228,5.79-7.784,5.79h-4.177v34.459h-5.506c-8.543,0-12.056-3.322-12.056-11.2V241.552c0-18.8,11.3-24.017,21.168-24.017,8.828,0,12.151,4.46,12.151,9.872v4.177Z" transform="translate(-435.68 -215.731)"></path><path class="b" d="M688.99,242.955c-3.322-4.272-11.486-6.741-18.7-6.741-10.632,0-18.417,7.027-18.417,17.657,0,13.385,8.164,19.746,18.8,19.746,7.024,0,14.808-2.658,18.036-6.075h.475v6.741c0,8.447-8.449,14.9-21.265,14.9-17.94,0-34.08-12.911-34.08-33.606,0-19.08,13.385-34.933,35.219-34.933,12.814,0,20.41,6.36,20.41,15.567v6.741Z" transform="translate(-422.829 -214.666)"></path><path class="b" d="M690.568,234.037c-5.221,0-9.492-3.986-9.492-8.923s4.271-8.923,9.492-8.923a8.935,8.935,0,1,1,0,17.846Zm8.543,55.914c-9.588,0-17.087-4.746-17.087-17.088V238.594h4.462c10.252,0,13.574,2.942,13.574,12.436v19.177c0,4.651,2.184,6.075,7.215,6.075h2.184V281.6C709.459,287.863,704.713,289.951,699.112,289.951Z" transform="translate(-406.661 -216.191)"></path><path class="b" d="M713.224,225.715a15.712,15.712,0,0,1,9.4-3.513h1.9v12.722H739.8v6.36c0,4.462-4.746,7.879-8.828,7.879H724.52v18.891c0,3.514,2.184,5.6,5.7,5.6,4.271,0,6.264-.38,8.165-1.138h.474v7.024c0,4.368-3.988,8.354-13.386,8.354-8.922,0-18.511-4.272-18.511-18.606V236.917C706.958,232.171,709.711,228.374,713.224,225.715Z" transform="translate(-397.804 -214.134)"></path><path class="b" d="M775.982,270.126c-14.618,28.1-18.32,30.947-29.238,30.947-5.791,0-10.632-3.133-10.632-9.019v-4.366l7.784-.569c4.746-.38,6.93-2.279,8.829-6.55-7.5-11.2-17.087-34.935-19.177-48.889h9.4c4.462,0,9.114,2.753,10.158,7.4a150.187,150.187,0,0,0,8.165,24.682c3.891-7.879,7.973-21.93,9.112-32.086h8.637c5.223,0,7.691,2.468,7.691,6.645C786.71,243.831,781.773,259.019,775.982,270.126Z" transform="translate(-388.703 -210.89)"></path></g><g transform="translate(142.063 88.463)"><path class="b" d="M505.46,320.136c-.06,3.315-1.748,5.123-8.981,5.123h-4.4c-10.065,0-15.371-5.545-15.371-16.093v-7.655a86.909,86.909,0,0,1,.784-11.633c.664-4.943,2.954-6.208,6.329-6.208H505.4v2.772c0,2.894-1.748,4.341-5.545,4.341H485.69a78.632,78.632,0,0,0-.6,9.643H501v2.956c0,2.711-1.689,3.8-5,3.8H485.088v2.411c0,7.172,2.35,8.559,8.739,8.559h2.652a41.472,41.472,0,0,0,9.041-.9Z" transform="translate(-476.708 -281.56)"></path><path class="b" d="M512.612,325.8c-6.691,0-10.307-3.556-10.307-10.126V282.1h2.29c4.039,0,5.788,2.352,5.788,5.425v27.364c0,3.255,1.686,4.28,5.484,4.28h2.17v1.748C518.037,324.411,516.168,325.8,512.612,325.8Z" transform="translate(-467.948 -282.098)"></path><path class="b" d="M539.292,325.867c-8.318,0-12.6-3.255-12.6-8.138v-3.676h.181a16.841,16.841,0,0,0,11.512,4.46c6.208,0,8.2-2.11,8.2-5.425,0-2.832-1.086-4.1-9.827-5.966-6.992-1.507-10.97-5-10.97-10.609,0-6.871,5.788-13.381,15.491-13.381,9.645,0,12.417,4.1,12.417,7.534v3.8h-.24c-2.531-2.711-6.208-4.037-10.729-4.037-6.389,0-8.741,2.109-8.741,5.3,0,2.471,1.929,3.978,9.644,5.6,7.535,1.568,11.212,5.486,11.212,11.031C554.843,320.5,549.3,325.867,539.292,325.867Z" transform="translate(-459.91 -281.744)"></path><path class="b" d="M565.943,323.426h-1.628c-7.715,0-13.02-4.339-13.02-10.307,0-5.786,4.22-10.188,16.154-10.188h2.833v-.421c0-4.581-2.169-5.966-6.992-5.966-5.847,0-9.1,2.229-10.307,3.737h-.3v-2.592c0-3.617,3.255-7.955,11.814-7.955,7.233,0,13.743,3.374,13.743,14.586v7.474C578.239,318.664,573.176,323.426,565.943,323.426Zm4.4-14.707h-2.894c-6.147,0-7.9,1.446-7.9,4.1,0,2.53,2.05,4.039,5.605,4.039,3.5,0,5.184-1.689,5.184-5Z" transform="translate(-451.181 -279.485)"></path><path class="b" d="M586.66,325.8c-6.691,0-10.307-3.556-10.307-10.126V282.1h2.29c4.039,0,5.786,2.352,5.786,5.425v27.364c0,3.255,1.687,4.28,5.484,4.28h2.172v1.748C592.085,324.411,590.216,325.8,586.66,325.8Z" transform="translate(-442.605 -282.098)"></path><path class="b" d="M615.2,304.346c-2.172,5.968-5.788,13.8-9.4,18.746h-1.566c-2.412,0-3.678-.844-5.3-3.255-4.4-6.691-9.946-20.856-10.669-29.655h4.341a4.88,4.88,0,0,1,4.821,3.858,67.708,67.708,0,0,0,6.208,18.987,80,80,0,0,0,7.112-22.845h3.436c2.772,0,3.8,1.205,3.8,3.858C617.968,295,617.184,298.92,615.2,304.346Z" transform="translate(-438.533 -279.332)"></path><path class="b" d="M627.554,323.426h-1.628c-7.715,0-13.02-4.339-13.02-10.307,0-5.786,4.219-10.188,16.154-10.188h2.832v-.421c0-4.581-2.169-5.966-6.992-5.966-5.845,0-9.1,2.229-10.307,3.737h-.3v-2.592c0-3.617,3.255-7.955,11.814-7.955,7.232,0,13.742,3.374,13.742,14.586v7.474C639.849,318.664,634.786,323.426,627.554,323.426Zm4.4-14.707H629.06c-6.147,0-7.9,1.446-7.9,4.1,0,2.53,2.05,4.039,5.607,4.039,3.5,0,5.182-1.689,5.182-5Z" transform="translate(-430.095 -279.485)"></path><path class="b" d="M651.744,326.22c-8.558,0-15.128-7.475-15.128-16.4,0-10.668,5.184-17.6,14.648-17.6a9.463,9.463,0,0,1,8.075,5.122V282.1h2.472c3.857,0,5.545,2.231,5.545,5.486v22.9C667.356,319.951,662.9,326.22,651.744,326.22Zm-.42-27.184c-4.1,0-6.753,3.978-6.753,9.221,0,6.751,3.5,11.153,8.138,11.153,4.521,0,6.51-3.377,6.51-9.283C659.219,301.989,655.662,299.036,651.324,299.036Z" transform="translate(-421.981 -282.098)"></path><path class="b" d="M680.326,289.643c9.765,0,15.37,7.836,15.37,16.453,0,9.766-5.605,17.542-16.094,17.542-9.763,0-15.37-7.776-15.37-16.4C664.233,297.479,669.84,289.643,680.326,289.643Zm-.723,7.232c-4.64,0-6.992,3.858-6.992,9.221,0,6.451,2.352,10.308,7.715,10.308,4.7,0,6.992-3.858,6.992-9.162C687.318,300.733,684.908,296.875,679.6,296.875Z" transform="translate(-412.529 -279.516)"></path><path class="b" d="M710.833,298.154a11.685,11.685,0,0,0-4.7-.964c-3.616,0-5.6,1.988-5.6,6.931v18.685h-2.232c-3.616,0-5.906-1.809-5.906-5.185V302.675c0-6.51,3.436-12.718,12-12.718,5,0,6.75,2.832,6.75,5.3v2.894Z" transform="translate(-402.893 -279.408)"></path></g></g></g></svg>